<?xml version="1.0" encoding="UTF-8" standalone="no"?>
<!-- Created with Inkscape (http://www.inkscape.org/) -->

<svg
   width="210mm"
   height="297mm"
   viewBox="0 0 210 297"
   version="1.1"
   id="svg1"
   xml:space="preserve"
   inkscape:version="1.4 (e7c3feb1, 2024-10-09)"
   sodipodi:docname="LLahmpuh.svg"
   xmlns:inkscape="http://www.inkscape.org/namespaces/inkscape"
   xmlns:sodipodi="http://sodipodi.sourceforge.net/DTD/sodipodi-0.dtd"
   xmlns="http://www.w3.org/2000/svg"
   xmlns:svg="http://www.w3.org/2000/svg"><sodipodi:namedview
     id="namedview1"
     pagecolor="#ffffff"
     bordercolor="#000000"
     borderopacity="0.25"
     inkscape:showpageshadow="2"
     inkscape:pageopacity="0.0"
     inkscape:pagecheckerboard="0"
     inkscape:deskcolor="#d1d1d1"
     inkscape:document-units="mm"
     inkscape:zoom="1.4797914"
     inkscape:cx="326.39736"
     inkscape:cy="530.81807"
     inkscape:window-width="1344"
     inkscape:window-height="846"
     inkscape:window-x="103"
     inkscape:window-y="37"
     inkscape:window-maximized="0"
     inkscape:current-layer="layer2" /><defs
     id="defs1"><inkscape:path-effect
       effect="offset"
       id="path-effect3"
       is_visible="true"
       lpeversion="1.3"
       linejoin_type="miter"
       unit="mm"
       offset="-0.3"
       miter_limit="4"
       attempt_force_join="false"
       update_on_knot_move="true" /><inkscape:path-effect
       effect="offset"
       id="path-effect2"
       is_visible="true"
       lpeversion="1.3"
       linejoin_type="miter"
       unit="mm"
       offset="-0.3"
       miter_limit="4"
       attempt_force_join="false"
       update_on_knot_move="true" /><inkscape:path-effect
       effect="offset"
       id="path-effect1"
       is_visible="true"
       lpeversion="1.3"
       linejoin_type="miter"
       unit="mm"
       offset="-0.3"
       miter_limit="4"
       attempt_force_join="false"
       update_on_knot_move="true" /></defs><g
     inkscape:label="Layer 1"
     inkscape:groupmode="layer"
     id="layer1" /><g
     inkscape:groupmode="layer"
     id="layer2"
     inkscape:label="Layer 2"><path
       style="fill:#000000"
       d="m 80.164062,112.69336 c 0.147297,0.0108 0.436091,0.10155 1.025391,0.35352 0.555143,0.23733 1.464858,0.59374 2.027344,0.79101 0.534905,0.1876 1.44637,0.57284 1.984375,0.83984 0.309806,0.15375 0.539508,0.27203 0.691406,0.36915 0.151899,0.0971 0.216092,0.16653 0.244141,0.21875 0.02805,0.0522 0.04343,0.11349 0.0293,0.25976 -0.01414,0.14627 -0.06218,0.36038 -0.132813,0.65039 -0.07079,0.29068 -0.118116,0.52187 -0.134766,0.68945 -0.0145,0.14597 -0.02489,0.38498 0.15625,0.5254 0.08493,0.0658 0.36102,0.21638 0.529297,0.30859 0.908698,0.4979 3.029013,1.60976 3.5,1.82617 0.01526,0.007 0.122669,0.0644 0.21875,0.0644 -0.05794,0 -0.07562,-0.006 -0.08984,-0.0117 0.0018,0.002 0.0034,0.004 0.0059,0.006 0.0037,0.003 0.0075,0.005 0.01172,0.008 0.0047,0.004 0.01034,0.007 0.01563,0.0117 0.0059,0.005 0.013,0.0102 0.01953,0.0156 0.0073,0.006 0.01352,0.0127 0.02148,0.0195 0.159267,0.13623 0.438181,0.41606 0.701172,0.70703 0.262992,0.29098 0.518592,0.60145 0.644531,0.78907 0.185061,0.2757 0.620079,0.85401 0.951172,1.26757 0.327878,0.40954 0.696077,0.94337 0.75586,1.06055 0.138632,0.27174 0.52958,0.65308 0.828125,0.87695 0.637379,0.47797 1.49045,1.2228 2.160156,1.86914 0.44647,0.4309 0.816974,0.82877 0.972656,1.04102 0.247657,0.33764 0.760791,1.07688 1.13086,1.62891 0.356067,0.53113 0.848488,1.19459 1.085937,1.43945 0.188174,0.19406 0.603592,0.67278 0.894532,1.03516 0.73196,0.91165 1.3884,1.53222 2.13086,1.99609 0.10649,0.0665 0.32639,0.24037 0.59961,0.48437 0.40983,0.36602 0.95493,0.89511 1.55859,1.51563 l 1.73633,1.7832 0.94336,-0.0254 c 0.48583,-0.0128 1.0564,0.0323 1.50586,0.10938 0.29964,0.0514 0.55325,0.12315 0.6582,0.17382 0.0943,0.0455 0.21996,0.16102 0.34766,0.3711 0.12769,0.21007 0.25535,0.50808 0.36914,0.88476 0.1104,0.36549 0.29082,0.87739 0.39453,1.10743 0.0689,0.15273 0.23337,0.70792 0.33594,1.15429 0.041,0.17855 0.0745,0.34559 0.0937,0.4668 0.006,0.0389 0.005,0.0486 0.008,0.0762 -0.081,0.0777 -0.24338,0.2054 -0.41016,0.32031 -0.12508,0.0862 -0.25428,0.16739 -0.35546,0.22266 -0.0405,0.0221 -0.0765,0.0408 -0.10352,0.0527 -0.004,0.002 -0.008,0.002 -0.0117,0.004 -0.003,0.001 -0.007,0.003 -0.01,0.004 -0.003,0.001 -0.004,0.003 -0.006,0.004 -0.002,7.4e-4 -0.004,0.001 -0.006,0.002 -0.0145,0.005 -0.021,-0.002 0.0273,-0.002 -0.17428,0 -0.3791,0.11962 -0.47461,0.18946 -0.119,0.087 -0.22808,0.19975 -0.25195,0.40039 -0.0176,0.14783 0.0199,0.33013 0.0605,0.51758 0.0547,0.2522 0.14542,0.7178 0.19922,1.02148 0.0579,0.32684 0.21601,0.84061 0.35157,1.13672 0.0814,0.17783 0.12623,0.29149 0.13867,0.33984 0.009,0.0363 0.004,0.0227 0.006,0.0156 0.002,-0.007 -0.002,0.009 -0.0332,0.0566 -0.0126,0.019 -0.0344,0.0435 -0.0547,0.0605 -0.003,0.003 -0.007,0.006 -0.01,0.008 -0.003,0.002 -0.005,0.004 -0.008,0.006 -0.002,0.001 -0.004,0.003 -0.006,0.004 -0.002,0.001 -0.003,0.001 -0.004,0.002 -0.001,7.4e-4 -0.003,0.001 -0.004,0.002 l -0.002,0.002 c -0.33018,0.0446 -0.52836,0.51093 -0.63672,0.77735 -0.0988,0.24283 -0.46033,0.87432 -0.89453,1.55859 -0.65129,1.0264 -1.49217,2.2339 -1.95312,2.77344 -0.33931,0.39716 -0.7478,0.98881 -0.89453,1.33008 -0.0717,0.16664 -0.26301,0.52112 -0.53907,0.98437 -0.41408,0.69487 -1.02242,1.65627 -1.75195,2.76172 -0.29864,0.45252 -0.67585,1.0597 -0.80273,1.30273 -0.0532,0.1019 -0.10941,0.19365 -0.15039,0.25196 -0.004,0.006 -0.008,0.0125 -0.0117,0.0176 -0.003,0.005 -0.007,0.008 -0.01,0.0117 -0.003,0.003 -0.006,0.007 -0.008,0.01 0.0105,-0.0166 0.0418,-0.0508 0.16797,-0.0508 -0.0716,0 -0.12596,0.0292 -0.17383,0.0586 -0.063,0.0387 -0.11068,0.083 -0.125,0.0996 -0.0995,0.11531 -0.34005,0.49599 -0.36523,0.71289 -0.005,0.0418 -0.0133,0.17812 0.0937,0.28516 0.0741,0.0741 0.16347,0.0879 0.17187,0.0898 0.15124,0.034 0.76553,0.0989 1.19336,0.13867 0.75758,0.0705 1.29888,0.18091 1.64844,0.31836 0.33406,0.13137 1.11924,0.39577 1.71484,0.58008 1.0843,0.33555 2.04508,0.83785 2.79883,1.43555 0.75375,0.5977 1.29872,1.28847 1.56641,1.99414 0.30225,0.79679 0.36098,1.62998 0.17968,2.77539 -0.1756,1.10932 -0.35476,5.72663 -0.23242,6.63281 0.0414,0.30627 0.0967,0.84811 0.1211,1.18164 l 0.0352,0.47266 -0.48633,0.45703 c -0.3602,0.33901 -0.8256,0.65565 -1.33007,0.89844 -0.39006,0.18771 -0.94874,0.49313 -1.14258,0.65625 -0.0876,0.0737 -0.34168,0.22749 -0.6543,0.38476 -0.46893,0.23591 -1.08805,0.50069 -1.63477,0.6875 -1.19407,0.40803 -2.94232,0.79446 -5.08789,1.11914 -0.26029,0.0394 -1.12676,0.0957 -1.966793,0.13282 -0.840034,0.0371 -1.699592,0.0581 -1.953125,0.0449 -0.0056,-3e-4 -0.01074,-0.002 -0.01563,-0.002 -0.0044,-2.7e-4 -0.008,2.8e-4 -0.01172,0 -0.0034,-2.5e-4 -0.007,-0.002 -0.0098,-0.002 -0.0025,-2.1e-4 -0.0039,2e-4 -0.0059,0 -0.0012,-1.1e-4 -0.003,1e-4 -0.0039,0 0,0 -0.002,0 -0.002,0 -0.05227,-0.0157 -0.09445,-0.019 -0.09961,-0.0195 -0.303631,-0.0293 -1.823952,-0.0565 -3.201172,-0.0644 -2.682368,-0.0156 -4.419141,-0.0799 -6.179687,-0.23047 -1.180671,-0.10099 -5.509906,-0.75454 -7.330078,-1.10938 -1.546727,-0.30153 -2.496899,-0.51414 -3.169922,-0.74218 -0.673023,-0.22804 -1.068865,-0.46357 -1.570313,-0.84961 -0.260961,-0.20092 -0.599164,-0.45189 -0.740234,-0.53711 -9.86e-4,-0.002 -0.0026,-0.004 -0.0039,-0.008 -0.0016,-0.004 -0.0021,-0.009 -0.0039,-0.0156 -0.02782,-0.0927 -0.06346,-0.38343 -0.09375,-0.9375 -0.09047,-1.65514 0.149714,-6.50079 0.443359,-8.82031 0.09663,-0.7633 0.239083,-1.32828 0.470703,-1.81836 0.23162,-0.49008 0.555341,-0.91483 1.044922,-1.39649 0.662613,-0.65188 1.320257,-1.0752 3.519531,-2.24804 1.03999,-0.55462 1.806095,-0.71518 6.017578,-1.25391 0.406619,-0.052 0.985646,-0.18232 1.28125,-0.29883 0.208038,-0.082 0.820752,-0.24562 1.275391,-0.33008 0.443239,-0.0824 0.951548,-0.17613 1.060547,-0.19726 0.112178,-0.0217 0.196079,-0.0868 0.248047,-0.13281 0.459092,-0.40639 1.256297,-2.00043 1.664062,-3.08985 0.362607,-0.96878 1.319046,-2.89425 2.230469,-4.47656 0.371084,-0.64423 0.89453,-1.37624 1.486328,-2.07031 0.211093,-0.24757 0.66093,-0.83101 0.984375,-1.27735 0.328196,-0.45288 0.787864,-1.07865 1.017578,-1.38281 0.187297,-0.248 1.026819,-1.51066 1.033203,-1.88867 0.0037,-0.21646 -0.186297,-0.29654 -0.21875,-0.30859 -0.196702,-0.0731 -0.97253,-0.0801 -1.28125,-0.0801 -0.39641,0 -0.675453,-0.002 -0.851562,-0.0176 -0.117406,-0.0107 -0.185915,-0.029 -0.208985,-0.0391 -0.02307,-0.0101 -0.0037,0.004 -0.0078,-0.004 -0.0062,-0.0112 -0.03277,-0.11104 -0.05469,-0.29102 -0.05416,-0.4448 -0.370097,-1.2511 -0.833984,-2.26171 -0.139195,-0.30325 -0.181866,-0.50986 -0.175781,-0.5918 0.003,-0.041 0.0088,-0.0502 0.01953,-0.0645 0.01074,-0.0142 0.03427,-0.037 0.0918,-0.0645 0.04832,-0.0231 0.101432,-0.0471 0.144531,-0.0723 0.06896,-0.0402 0.186094,-0.12164 0.226563,-0.26953 0.05362,-0.19597 -0.06493,-0.3635 -0.121094,-0.44922 -0.121326,-0.18517 -0.683948,-0.71558 -0.990234,-0.99024 -1.742169,-1.56224 -4.053332,-4.10188 -5.5625,-6.11328 -1.161598,-1.54815 -1.623816,-2.17061 -2.023438,-2.36719 -0.111936,-0.0551 -0.212786,-0.0795 -0.310547,-0.0957 -0.212808,-0.0352 -0.561606,-0.0658 -0.771484,-0.0664 -0.227687,-8.8e-4 -0.393555,-0.0356 -0.496094,-0.084 -0.102539,-0.0484 -0.147738,-0.0975 -0.183594,-0.18164 -0.06608,-0.15497 -0.186468,-0.37281 -0.285156,-0.49219 -0.003,-0.004 -0.05176,-0.0718 -0.103516,-0.15429 -0.07763,-0.12379 -0.178294,-0.29572 -0.267578,-0.45899 -0.07783,-0.14232 -0.144068,-0.26567 -0.197265,-0.34765 -0.04433,-0.0683 -0.154996,-0.23702 -0.357422,-0.24024 -0.249997,-0.004 -0.356926,0.23974 -0.392578,0.30664 -0.0028,0.005 -0.0581,0.0883 -0.13086,0.17774 -0.109137,0.13412 -0.266118,0.30797 -0.416015,0.45898 -0.263337,0.26529 -0.62089,0.69349 -0.78125,0.94141 l -0.337891,0.51953 0.261719,1.11523 c 0.128688,0.54768 0.406715,1.60563 0.615234,2.3457 0.487121,1.7289 0.608935,2.7722 0.47461,3.87696 -0.05544,0.45599 -0.193692,1.08433 -0.271485,1.28906 -0.104738,0.27565 -0.245124,0.75801 -0.304687,1.04492 -0.06031,0.29052 -0.143936,0.48278 -0.25586,0.62696 -0.111923,0.14417 -0.260565,0.25283 -0.5,0.35546 -0.428234,0.18356 -1.000085,0.20252 -1.583984,0.0254 -0.30588,-0.0928 -0.865784,-0.15625 -1.255859,-0.15625 -0.693548,0 -2.035892,-0.20219 -2.845704,-0.43359 -0.372633,-0.10648 -1.250113,-0.45665 -2.140625,-0.85156 -0.890511,-0.39491 -1.816521,-0.83998 -2.33789,-1.13477 -1.291771,-0.73037 -1.678861,-0.99363 -2.464844,-1.66601 -0.375827,-0.32151 -1.079416,-0.84827 -1.568359,-1.17578 -0.46222,-0.3096 -1.164989,-0.86586 -1.511719,-1.19532 -0.374171,-0.35552 -1.011595,-0.91501 -1.412109,-1.24023 -0.812793,-0.66002 -1.808296,-1.6649 -2.648438,-2.67774 -0.287225,-0.34626 -0.424947,-0.53117 -0.464844,-0.61523 -0.01995,-0.042 -0.02187,-0.0545 -0.02344,-0.0898 -0.0016,-0.0354 0.0024,-0.0978 0.01563,-0.19532 0.09786,-0.72355 0.644027,-1.63806 2.103515,-3.33398 0.148479,-0.17253 0.253646,-0.27097 0.398438,-0.36328 0.144792,-0.0923 0.340019,-0.18261 0.65625,-0.30274 0.458797,-0.17428 1.359629,-0.61989 1.988281,-0.97656 0.54298,-0.30806 0.834246,-0.46578 1.052735,-0.54687 0.218488,-0.0811 0.385608,-0.10054 0.74414,-0.12891 0.433789,-0.0343 1.159977,-0.12852 1.617188,-0.20898 0.416148,-0.0733 1.226225,-0.13861 1.736328,-0.13868 0.868885,-1.1e-4 1.125262,-0.0355 1.40039,-0.25195 0.484334,-0.38097 1.789048,-1.78226 2.242188,-2.38867 0.25068,-0.33547 0.713895,-0.94986 1.027344,-1.36523 0.315618,-0.41827 1.017365,-1.37899 1.552734,-2.12305 0.752859,-1.04633 1.203167,-1.66353 1.455078,-2.04688 0.426319,-0.64874 0.366938,-0.786 0.367188,-1.20312 2.11e-4,-0.35285 0.05794,-0.60097 0.136718,-0.74414 0.03939,-0.0716 0.0805,-0.11914 0.128907,-0.1543 0.04841,-0.0352 0.10506,-0.0595 0.183593,-0.0742 0.04318,-0.008 0.07719,-0.0113 0.125,-0.008 z m 10.048829,6.88477 c -6.05e-4,-6.4e-4 -0.0013,-0.001 -0.002,-0.002 -0.0025,-0.002 -0.0058,-0.003 -0.0078,-0.004 -0.0018,-0.001 -0.0026,-0.003 -0.0039,-0.004 -0.0072,-0.005 -0.0067,0.002 0.01367,0.01 z m -9.953125,-6.68165 c -0.04923,0.006 -0.09924,0.0224 -0.146485,0.0488 -0.269946,0.1513 -0.279297,0.56152 -0.279297,0.83008 0,0.26713 -0.03085,0.4556 -0.125,0.68359 -0.09415,0.228 -0.259079,0.49955 -0.535156,0.87891 -0.159579,0.21928 -0.725461,0.99849 -1.253906,1.73242 -0.528117,0.73348 -1.242587,1.7137 -1.583985,2.17188 -0.343724,0.46129 -0.780898,1.05074 -0.970703,1.30859 -0.150437,0.20436 -0.847638,0.98461 -1.484375,1.64258 l -1.068359,1.10547 -0.847656,-0.0527 c -0.810556,-0.0498 -1.275421,-0.0196 -2.205078,0.14454 -0.617184,0.10896 -1.36704,0.19531 -1.53711,0.19531 -0.445729,0 -0.732476,0.11914 -1.65625,0.65234 -0.563876,0.32546 -1.430694,0.74994 -1.867187,0.91797 -0.962185,0.37041 -0.943318,0.33162 -2.232422,1.9707 -0.375891,0.47794 -0.709764,1.01977 -0.841797,1.40821 l -0.242188,0.70703 0.585938,0.6914 c 0.814403,0.96719 1.824596,1.98848 2.541016,2.5586 0.357262,0.2843 0.965283,0.81681 1.326171,1.16015 0.379295,0.36086 1.050595,0.8972 1.484375,1.18555 0.40505,0.26927 1.156817,0.83312 1.634766,1.23047 1.164108,0.96779 2.9302,1.98327 4.933594,2.8457 2.122121,0.91354 3.492081,1.25304 5.132812,1.26172 0.262307,0.002 0.788275,0.0731 1.078125,0.15039 0.656509,0.17494 0.749682,0.16446 1.253907,-0.0586 0.391972,-0.17339 0.640625,-0.35683 0.640625,-0.69141 l 0.03906,-0.17383 c 0.01952,-0.0751 0.04606,-0.16608 0.07617,-0.26562 0.05018,-0.16591 0.112577,-0.35577 0.179687,-0.54492 0.308432,-0.86933 0.331137,-1.01002 0.326172,-2.33399 -0.0049,-1.309 -0.02824,-1.47101 -0.417968,-2.82617 -0.219413,-0.76294 -0.488204,-1.75633 -0.589844,-2.18555 -0.06614,-0.27931 -0.23788,-0.9151 -0.410156,-1.10547 -0.0083,-0.009 -0.02705,-0.0367 -0.04102,-0.0645 l -0.02344,-0.0625 c 4.12e-4,-0.001 -4.53e-4,-0.003 0,-0.004 0.0064,-0.0172 0.01709,-0.0429 0.03125,-0.0723 0.03541,-0.0736 0.09343,-0.17486 0.166016,-0.29102 0.09679,-0.15488 0.219887,-0.33586 0.357422,-0.52343 0.229224,-0.31262 0.497859,-0.64429 0.746094,-0.91211 0.301517,-0.32532 0.651732,-0.82962 0.789062,-1.16797 0.08647,-0.21304 0.170368,-0.35508 0.216797,-0.40625 0.01044,0.007 0.03733,0.0162 0.09961,0.0859 0.11404,0.12772 0.273033,0.37346 0.462891,0.72461 0.187015,0.34588 0.55987,0.98559 0.744141,1.15234 0.02675,0.0242 0.05426,0.0553 0.07422,0.082 0.003,0.004 0.0052,0.008 0.0078,0.0117 0.0024,0.003 0.0039,0.007 0.0059,0.01 0.0018,0.003 0.0044,0.005 0.0059,0.008 0.0013,0.002 0.0029,0.004 0.0039,0.006 9.42e-4,0.002 0.0013,0.003 0.002,0.004 l 0.002,0.002 c 9.81e-4,0.003 -0.0098,-2.5e-4 -0.0098,-0.0605 0,0.50837 0.892516,0.54926 1.257812,0.55078 0.30295,0.001 0.494502,0.0431 0.666016,0.14063 0.171513,0.0975 0.339915,0.26677 0.550781,0.56445 1.849433,2.61087 4.473605,5.69634 6.089844,7.14844 0.506307,0.45488 1.025354,0.95873 1.46289,1.41211 0.523161,0.54209 0.942753,1.03849 1.048828,1.21289 -0.0044,0.0308 -0.0075,0.0566 -0.04297,0.084 -0.04534,0.0351 -0.135828,0.0703 -0.265625,0.0703 -0.101569,0 -0.228251,0.007 -0.341797,0.0664 -0.180458,0.0951 -0.253898,0.296 -0.175781,0.48437 0.02377,0.0572 0.143393,0.35287 0.257812,0.64258 0.115094,0.29142 0.294415,0.72291 0.398438,0.95508 0.05341,0.1192 0.104049,0.26274 0.132812,0.36914 0.01918,0.0709 0.02539,0.13624 0.02539,0.11914 0,0.18621 0.05751,0.42713 0.402343,0.47461 0.180682,0.0249 0.504293,5.4e-4 0.935547,-0.0273 0.544886,-0.0352 0.897628,-0.0196 1.091797,0.0332 0.09708,0.0264 0.153806,0.0586 0.195313,0.0937 0.03901,0.0331 0.07133,0.0771 0.103515,0.14453 0,0 0,0.002 0,0.002 0,0 0,0.002 0,0.002 1.02e-4,0.001 -7.3e-5,0.002 0,0.004 7.38e-4,0.018 -8.26e-4,0.0518 -0.0078,0.0957 -0.02096,0.13166 -0.08848,0.34972 -0.195313,0.59765 -0.267082,0.61984 -0.768711,1.45235 -1.291015,2.07813 -0.143382,0.17178 -0.468535,0.60754 -0.695313,0.92578 -0.228911,0.32123 -0.745036,0.98864 -1.128906,1.46484 -0.344766,0.42769 -0.794355,1.02859 -0.919922,1.25586 -0.09442,0.1709 -0.343569,0.58859 -0.541016,0.90235 -0.665238,1.0571 -1.641762,3.01555 -2.068359,4.15234 -0.223805,0.59639 -0.520557,1.31839 -0.634766,1.55078 -0.140796,0.2865 -0.484048,0.84567 -0.763671,1.25977 -0.11185,0.16564 -0.214024,0.31121 -0.28711,0.40429 0,0 -0.04459,0.0528 -0.0625,0.0742 -0.105825,0.0344 -0.447168,0.10686 -0.792969,0.15625 -0.464943,0.0665 -1.249933,0.24937 -1.734375,0.40235 -0.447726,0.14139 -1.231575,0.31112 -1.675781,0.36523 -2.582062,0.31453 -4.287835,0.59993 -5.005859,0.87305 -0.324759,0.12353 -1.139125,0.55476 -1.779297,0.92969 -0.401143,0.23493 -0.792699,0.45576 -1.060547,0.5996 0,0 -0.300636,0.1523 -0.300781,0.15235 -0.248147,0.0775 -0.814547,0.6401 -1.021485,0.85351 -0.996846,1.02805 -1.290991,1.68231 -1.486328,3.3125 -0.270133,2.25442 -0.470339,5.86496 -0.416015,7.55274 l 0.05664,1.72265 0.517578,0.45313 c 0.233529,0.20455 0.629766,0.49792 0.865235,0.63867 0.70591,0.42195 2.587317,0.91477 3.630859,0.99219 0.473503,0.0351 1.334291,0.17027 1.853516,0.29297 1.042453,0.24636 2.663094,0.41833 4.367187,0.4707 0.513543,0.0158 1.232966,0.0782 1.542969,0.13086 0.634211,0.10764 0.90696,0.12944 3.978516,0.31641 0.867628,0.0529 1.84639,0.14067 2.08789,0.17968 0.322537,0.0521 0.92264,0.0624 1.322266,0.0312 0.349318,-0.0272 1.98089,-0.0616 3.539062,-0.0723 2.435513,-0.0166 3.040553,-0.0519 4.044923,-0.23047 1.91267,-0.34013 3.77757,-0.9024 5.08594,-1.54297 2.15371,-1.05445 2.35865,-1.20074 2.88281,-1.89062 0.29012,-0.38184 0.52004,-0.93347 0.39453,-1.32618 -0.0223,-0.0698 -0.0638,-0.13529 -0.11523,-0.19531 -2.6e-4,-0.002 2.5e-4,-0.004 0,-0.006 -7.8e-4,-0.007 -0.003,-0.0138 -0.004,-0.0215 -8.7e-4,-0.009 -0.001,-0.0176 -0.002,-0.0274 -9.4e-4,-0.0108 -0.001,-0.0229 -0.002,-0.0351 -9.9e-4,-0.0136 -0.003,-0.0278 -0.004,-0.043 -0.001,-0.0169 -0.001,-0.034 -0.002,-0.0527 -0.0371,-0.74782 0.0202,-2.83891 0.1504,-4.72851 0.19577,-2.84048 0.24899,-4.24244 0.0508,-4.82422 -0.21523,-0.63169 -0.9814,-1.60731 -1.55664,-2.00977 -0.74171,-0.51892 -1.77871,-1.10421 -2.28516,-1.23632 -0.37075,-0.0967 -0.95467,-0.28253 -1.41797,-0.44727 -0.30887,-0.10982 -0.57789,-0.21831 -0.6582,-0.25976 -0.24254,-0.12521 -1.00135,-0.22359 -1.41406,-0.25977 -0.72747,-0.0638 -1.41187,-0.13966 -1.92188,-0.20898 -0.204,-0.0277 -0.38158,-0.054 -0.51953,-0.0781 -0.0629,-0.011 -0.10904,-0.0217 -0.1543,-0.0312 0.017,-0.0524 0.0412,-0.11633 0.0879,-0.20117 0.13705,-0.24928 0.40047,-0.59882 0.75977,-0.98047 0.42684,-0.45338 0.9951,-1.16765 1.25781,-1.58789 0.24534,-0.39246 0.80494,-1.2657 1.24024,-1.93359 0.42945,-0.65893 0.95816,-1.56068 1.16015,-1.98633 0.16898,-0.3561 0.61067,-1.02721 0.9336,-1.41016 0.89797,-1.0649 2.37187,-3.31067 2.86523,-4.38086 l 0.45312,-0.97851 -0.17578,-0.63086 c -0.0721,-0.26179 -0.16411,-0.73663 -0.19531,-1 -0.0371,-0.31307 -0.16232,-0.78933 -0.2832,-1.07032 -0.0705,-0.16398 -0.10696,-0.26602 -0.11524,-0.30468 -0.006,-0.029 -0.005,-0.0116 -0.006,-0.008 -0.001,0.004 0.008,-0.0172 0.043,-0.0684 -0.006,0.009 0.0607,-0.0476 0.0762,-0.0586 0.0617,-0.0441 0.14914,-0.0997 0.25,-0.15625 0.13449,-0.0754 0.29158,-0.15311 0.44922,-0.2207 l 1.01368,-0.4336 -0.15625,-0.60351 c -0.1198,-0.45891 -0.53567,-1.76134 -0.78321,-2.46485 -0.0699,-0.19854 -0.26622,-0.6862 -0.50586,-0.81445 -0.17817,-0.0954 -0.82589,-0.20235 -1.08789,-0.24023 -0.71158,-0.1029 -0.99868,-0.0993 -1.49414,0.0195 l -0.38281,0.0918 -1.66602,-1.70704 c -1.16017,-1.18904 -2.02307,-1.99257 -2.51757,-2.3125 -0.75744,-0.49003 -1.20868,-0.91169 -1.92969,-1.80859 -0.2892,-0.35975 -0.733309,-0.87792 -0.988284,-1.15039 -0.199668,-0.21338 -0.865381,-1.10129 -1.396484,-1.88672 -0.492305,-0.72805 -1.172422,-1.64831 -1.451172,-1.92383 -0.709281,-0.70107 -1.854921,-1.68729 -2.537109,-2.18554 -0.410595,-0.29989 -0.64682,-0.55437 -0.828125,-0.87696 -0.171762,-0.30559 -0.615969,-0.9357 -0.951172,-1.35742 -0.343221,-0.43181 -0.765293,-0.99316 -0.916016,-1.21484 -0.538317,-0.79175 -1.020018,-1.13011 -3.490234,-2.45117 -1.024836,-0.54809 -1.935825,-1.06715 -2.25,-1.27344 -0.0079,-0.005 -0.01446,-0.0109 -0.02148,-0.0156 0.0087,-0.0881 0.04163,-0.24238 0.101563,-0.41992 0.09969,-0.29529 0.219324,-0.74563 0.257812,-0.98633 l 0.101563,-0.6289 -1.13086,-0.5293 c -0.514261,-0.24031 -1.434701,-0.61056 -2.039062,-0.82227 -0.87525,-0.30659 -1.46488,-0.52314 -1.808594,-0.66601 -0.114571,-0.0476 -0.200523,-0.0882 -0.257812,-0.11719 -0.02864,-0.0145 -0.07428,-0.0446 -0.05859,-0.0293 -0.07502,-0.073 -0.171287,-0.15034 -0.300781,-0.17968 -0.04515,-0.0102 -0.09334,-0.0138 -0.142578,-0.008 z m 16.710937,65.80664 c 0.01211,3.8e-4 0.06646,0.004 0.140625,0.084 -0.04372,-0.047 -0.09482,-0.0695 -0.140625,-0.084 z"
       id="path2"
       sodipodi:nodetypes="ccsssssssssscssssssssssssssscsssssscsssssssssssssssssssscscsssssssssssssssssssssccssssssssscssssssssssssssccsssssccssssssssssssssssssccssssccsssccsssssssssssssscssssssssscccssssscssssssccsssssscsssssscsssscssssssssssssscsssscssscsssssccssss"
       inkscape:path-effect="#path-effect3"
       inkscape:original-d="m 96.885352,178.998 c -0.0266,-0.0286 -1.476996,-0.0603 -3.223106,-0.0704 -2.686618,-0.0156 -4.435167,-0.0811 -6.205428,-0.23252 -1.227676,-0.10501 -5.520146,-0.75388 -7.360228,-1.1126 -3.100138,-0.60437 -3.836935,-0.85399 -4.871386,-1.65038 -0.298012,-0.22944 -0.622728,-0.46515 -0.721591,-0.5238 -0.152429,-0.0904 -0.188856,-0.27323 -0.23966,-1.20265 -0.09378,-1.71563 0.147414,-6.52714 0.445052,-8.87821 0.197987,-1.56392 0.593562,-2.40059 1.605848,-3.39649 0.688482,-0.67733 1.385496,-1.12378 3.589676,-2.29924 1.075727,-0.57368 1.909141,-0.74898 6.12386,-1.28812 0.404989,-0.0518 0.948894,-0.17798 1.208678,-0.28037 0.259784,-0.1024 0.859282,-0.25806 1.332217,-0.34591 0.472935,-0.0879 0.948903,-0.17699 1.057706,-0.19808 0.278105,-0.0539 1.165508,-1.65296 1.679667,-3.02663 0.377591,-1.00881 1.332618,-2.9271 2.251276,-4.52197 0.383236,-0.66533 0.917958,-1.40951 1.520916,-2.11667 0.203036,-0.23812 0.638498,-0.80462 0.967692,-1.25889 0.329194,-0.45426 0.789303,-1.07853 1.022464,-1.38725 0.387607,-0.51323 0.966984,-1.53316 0.969928,-1.70746 6.7e-4,-0.0397 -0.534673,-0.0722 -1.189652,-0.0722 -1.323634,0 -1.357737,-0.0149 -1.432077,-0.62538 -0.04589,-0.37688 -0.314919,-1.10181 -0.805583,-2.17076 -0.296683,-0.64635 -0.273456,-0.95751 0.08423,-1.1284 0.246455,-0.11776 0.254435,-0.14004 0.122328,-0.34166 -0.07773,-0.11863 -0.499441,-0.53682 -0.937138,-0.92932 -1.764805,-1.58254 -4.078551,-4.12501 -5.603553,-6.15751 -1.576466,-2.10108 -1.736267,-2.27626 -2.136755,-2.34244 -0.202195,-0.0334 -0.527166,-0.0612 -0.722158,-0.0618 -0.514987,-0.002 -0.834807,-0.15285 -0.964118,-0.45614 -0.0625,-0.14658 -0.169518,-0.3341 -0.23782,-0.41672 -0.0683,-0.0826 -0.250172,-0.38058 -0.404153,-0.66216 -0.276225,-0.50512 -0.281597,-0.50889 -0.402116,-0.28275 -0.06718,0.12607 -0.33703,0.44569 -0.599662,0.71027 -0.262632,0.26458 -0.596797,0.66548 -0.74259,0.89087 l -0.265079,0.40982 0.231506,0.98526 c 0.127328,0.54189 0.402287,1.5914 0.61102,2.33223 0.4924,1.74763 0.626103,2.84751 0.486108,3.9989 -0.05831,0.4796 -0.189641,1.09206 -0.291838,1.36102 -0.102197,0.26896 -0.233388,0.71819 -0.291536,0.99829 -0.132568,0.63857 -0.390479,0.97076 -0.934881,1.20412 -0.510775,0.21894 -1.154093,0.23233 -1.796699,0.0374 -0.259764,-0.0788 -0.784462,-0.14328 -1.165996,-0.14328 -0.749491,0 -2.083371,-0.20238 -2.931781,-0.44481 -0.836215,-0.23896 -3.461493,-1.40344 -4.544542,-2.01581 -1.296765,-0.7332 -1.720256,-1.01932 -2.514798,-1.69902 -0.363678,-0.31111 -1.056406,-0.83036 -1.539394,-1.15388 -0.482988,-0.32351 -1.181229,-0.87618 -1.551646,-1.22814 -0.370416,-0.35196 -0.9982,-0.90362 -1.395075,-1.22589 -0.835893,-0.67878 -1.838253,-1.6919 -2.690698,-2.71957 -0.576179,-0.69462 -0.59644,-0.73721 -0.54203,-1.13953 0.11297,-0.83531 0.706373,-1.7888 2.176157,-3.49668 0.31735,-0.36876 0.532369,-0.50578 1.179348,-0.75155 0.435181,-0.16531 1.310783,-0.59533 1.945783,-0.9556 1.088743,-0.6177 1.198415,-0.6585 1.924243,-0.71594 0.423333,-0.0335 1.137708,-0.12568 1.5875,-0.20484 0.449792,-0.0792 1.255743,-0.14399 1.791002,-0.14406 0.81643,-1.1e-4 1.011318,-0.0301 1.209835,-0.18627 0.444447,-0.3496 1.7264,-1.71678 2.18409,-2.32928 0.251307,-0.33631 0.713671,-0.95172 1.027475,-1.36757 0.313804,-0.41586 1.011086,-1.36836 1.549515,-2.11667 1.913191,-2.65897 1.76304,-2.3976 1.763443,-3.06963 4.6e-4,-0.7679 0.231935,-1.18807 0.703229,-1.27649 0.260581,-0.0489 0.533182,0.0262 1.327506,0.36583 0.549773,0.23504 1.454189,0.58679 2.009814,0.78165 0.555625,0.19487 1.46483,0.57991 2.020455,0.85566 1.244832,0.61778 1.278972,0.68126 0.994506,1.84932 -0.143276,0.58832 -0.168701,0.83817 -0.09139,0.8981 0.199845,0.1549 3.963926,2.13158 4.059051,2.13158 0.146205,0 1.227174,1.14609 1.588049,1.68371 0.177598,0.26459 0.598274,0.82501 0.934834,1.2454 0.336561,0.42038 0.692223,0.92173 0.790361,1.11409 0.09814,0.19237 0.430266,0.53861 0.738064,0.76942 1.091121,0.81822 2.740339,2.35324 3.196555,2.97521 0.254452,0.3469 0.7674,1.08533 1.139886,1.64096 0.372485,0.55562 0.84518,1.18341 1.050432,1.39507 0.205253,0.21167 0.61652,0.68792 0.91392,1.05834 0.71536,0.89098 1.34813,1.48429 2.05202,1.92406 0.35609,0.22248 1.20593,1.00686 2.21805,2.04724 l 1.64078,1.68657 0.8078,-0.0214 c 0.85133,-0.0225 1.9063,0.12143 2.30658,0.3147 0.34206,0.16516 0.64118,0.65662 0.87919,1.44454 0.11398,0.37733 0.28532,0.85924 0.38075,1.0709 0.16374,0.36316 0.47405,1.61043 0.47405,1.90539 0,0.14106 -0.99368,0.83666 -1.19518,0.83666 -0.0633,0 -0.19406,0.0578 -0.29068,0.12845 -0.15526,0.11353 -0.16375,0.18339 -0.0731,0.60132 0.0564,0.26009 0.14729,0.72541 0.20197,1.03406 0.0547,0.30864 0.2026,0.7865 0.32868,1.06191 0.20711,0.45239 0.2156,0.5213 0.0879,0.71364 -0.0778,0.11709 -0.21184,0.21308 -0.29799,0.21331 -0.10147,2.7e-4 -0.24135,0.20869 -0.39717,0.59179 -0.30686,0.75446 -2.08696,3.46694 -2.89902,4.41745 -0.34218,0.40052 -0.72324,0.96337 -0.84681,1.25076 -0.21528,0.50069 -1.0987,1.9468 -2.31758,3.79375 -0.3143,0.47625 -0.66752,1.04991 -0.78494,1.27481 -0.11741,0.2249 -0.24703,0.4089 -0.28805,0.4089 -0.0808,0 -0.4026,0.57489 -0.35077,0.62672 0.0174,0.0174 0.54657,0.0795 1.17601,0.13807 0.77282,0.0719 1.33504,0.18145 1.7314,0.33731 0.32283,0.12695 1.08486,0.3849 1.6934,0.57322 2.23645,0.6921 3.97773,2.07196 4.56357,3.61635 0.3234,0.85253 0.38407,1.75475 0.19734,2.93447 -0.18122,1.14483 -0.34345,5.71773 -0.23211,6.54242 0.0429,0.3175 0.0984,0.85735 0.12339,1.19965 l 0.0455,0.62238 -0.59296,0.55805 c -0.38695,0.36418 -0.87599,0.69427 -1.40763,0.95013 -0.44808,0.21564 -0.93356,0.4921 -1.07885,0.61436 -0.33344,0.28058 -1.44946,0.80814 -2.38791,1.12881 -1.22456,0.41844 -2.98498,0.80622 -5.14182,1.13261 -0.68656,0.1039 -4.026166,0.23717 -4.094798,0.16341 z m 1.63586,-0.98479 c 2.414118,-0.0165 3.010788,-0.0501 3.992808,-0.22472 1.89617,-0.3372 3.72965,-0.8929 5.00303,-1.51634 2.08324,-1.01995 2.27846,-1.14654 2.77406,-1.79883 0.35674,-0.46952 0.47683,-1.03513 0.24961,-1.17557 -0.11343,-0.0701 -0.059,-2.72173 0.10455,-5.09491 0.21095,-3.06071 0.22723,-4.22846 0.0656,-4.70287 -0.19051,-0.55914 -0.9067,-1.48093 -1.4411,-1.85481 -0.78256,-0.54751 -1.75676,-1.07775 -2.18566,-1.18963 -0.64609,-0.16854 -1.8398,-0.57673 -2.14065,-0.73201 -0.14548,-0.0751 -0.72997,-0.17734 -1.29886,-0.22721 -1.46363,-0.12832 -2.75249,-0.30335 -2.84533,-0.38642 -0.20763,-0.18576 0.15459,-0.84532 0.89774,-1.6347 0.42346,-0.44979 0.97292,-1.14252 1.22102,-1.53939 0.2481,-0.39688 0.80816,-1.26944 1.24456,-1.93903 0.4364,-0.66958 0.9498,-1.5469 1.14089,-1.94958 0.19135,-0.40323 0.62942,-1.06655 0.97511,-1.4765 0.88835,-1.05348 2.34586,-3.28167 2.82147,-4.31335 l 0.4034,-0.87504 -0.14322,-0.52003 c -0.0788,-0.28602 -0.17121,-0.75639 -0.20543,-1.04527 -0.0342,-0.28888 -0.1513,-0.73234 -0.26019,-0.98546 -0.18008,-0.41861 -0.18475,-0.47984 -0.0516,-0.67741 0.0805,-0.11946 0.49149,-0.36519 0.91333,-0.54607 l 0.76697,-0.32888 -0.09,-0.34461 c -0.11554,-0.4426 -0.52228,-1.725 -0.77416,-2.44084 -0.10776,-0.30626 -0.26956,-0.59624 -0.35955,-0.6444 -0.09,-0.0482 -0.53413,-0.14114 -0.98698,-0.20661 -0.67913,-0.0982 -0.92052,-0.0957 -1.37803,0.014 l -0.55466,0.13306 -1.78864,-1.83315 c -1.19259,-1.22226 -2.01308,-1.97835 -2.46213,-2.26887 -0.77968,-0.50443 -1.27233,-0.96553 -2.00393,-1.8756 -0.287827,-0.35805 -0.725902,-0.86748 -0.973493,-1.13206 -0.247592,-0.26459 -0.88931,-1.1305 -1.42604,-1.92425 -0.53673,-0.79375 -1.172983,-1.63801 -1.413897,-1.87613 -0.705352,-0.69719 -1.831475,-1.66882 -2.500606,-2.15754 -0.433759,-0.31681 -0.709342,-0.61075 -0.914015,-0.97491 -0.161163,-0.28674 -0.57734,-0.87904 -0.924839,-1.31623 -0.347499,-0.43719 -0.765967,-0.99219 -0.929928,-1.23334 -0.503269,-0.7402 -0.956747,-1.05571 -3.380056,-2.35169 -1.28631,-0.68792 -2.37479,-1.31708 -2.418845,-1.39815 -0.04892,-0.09 -0.0095,-0.35649 0.101279,-0.68464 0.09976,-0.29549 0.210054,-0.71659 0.245102,-0.93577 l 0.06372,-0.3985 -0.917533,-0.42877 c -0.504644,-0.23582 -1.408613,-0.60078 -2.008821,-0.81103 -1.462261,-0.51222 -2.130929,-0.77558 -2.241022,-0.88266 -0.234559,-0.22813 -0.341553,-0.0815 -0.341553,0.46799 0,0.58907 -0.157147,0.96901 -0.721591,1.74462 -0.15875,0.21814 -0.721591,0.99793 -1.250757,1.73286 -0.529167,0.73494 -1.243542,1.71393 -1.5875,2.17554 -0.343959,0.46161 -0.780283,1.04972 -0.969611,1.30692 -0.189327,0.25719 -0.869631,1.01055 -1.511785,1.67412 l -1.167554,1.2065 -0.98973,-0.0607 c -0.783353,-0.0481 -1.228056,-0.0187 -2.132684,0.14106 -0.628625,0.11098 -1.344127,0.20179 -1.590005,0.20179 -0.373739,0 -0.620192,0.0999 -1.502879,0.60939 -0.580705,0.33517 -1.44003,0.7573 -1.909609,0.93807 -0.920752,0.35446 -0.872232,0.3112 -2.100676,1.87315 -0.372219,0.47327 -0.680938,0.9854 -0.793319,1.31602 l -0.183975,0.54124 0.471637,0.56012 c 0.815309,0.96826 1.799732,1.95942 2.497992,2.51509 0.370417,0.29477 0.976553,0.82429 1.34697,1.1767 0.370417,0.35241 1.019849,0.871 1.443182,1.15241 0.423333,0.28142 1.170119,0.84456 1.659524,1.25143 1.131898,0.94101 2.867707,1.94047 4.85859,2.79752 2.086743,0.89831 3.42519,1.22871 5.011549,1.2371 0.308815,0.002 0.829269,0.0743 1.156564,0.16154 0.576106,0.15351 0.609593,0.15215 1.050072,-0.0427 0.338641,-0.1498 0.454989,-0.25407 0.454989,-0.40774 0,-0.11356 0.140711,-0.60306 0.31269,-1.08779 0.297423,-0.8383 0.312443,-0.94709 0.307639,-2.2283 -0.0048,-1.28598 -0.02321,-1.41013 -0.406253,-2.74205 -0.220662,-0.76729 -0.487032,-1.75751 -0.591934,-2.2005 -0.104902,-0.44299 -0.257628,-0.87935 -0.339391,-0.9697 -0.08176,-0.0904 -0.14866,-0.24427 -0.14866,-0.34206 0,-0.23716 0.740309,-1.30697 1.387999,-2.00577 0.293728,-0.31691 0.61281,-0.78704 0.729796,-1.07527 0.371675,-0.91575 0.689257,-0.82674 1.339217,0.37537 0.265005,0.49013 0.569736,0.9707 0.67718,1.06793 0.107445,0.0972 0.195354,0.22962 0.195354,0.29418 0,0.13099 0.420829,0.23689 0.950095,0.23909 0.667363,0.003 1.021078,0.2043 1.469377,0.83717 1.85069,2.61265 4.452284,5.66817 6.042822,7.09718 1.281735,1.15156 2.624952,2.60063 2.625551,2.83246 7.43e-4,0.28762 -0.258119,0.48856 -0.629406,0.48856 -0.186906,0 -0.263886,0.0401 -0.23064,0.12027 0.02745,0.0661 0.143947,0.35839 0.258891,0.64943 0.114945,0.29104 0.291951,0.71433 0.393347,0.94064 0.101396,0.22631 0.184357,0.50328 0.184357,0.6155 0,0.19906 0.02451,0.20243 1.009255,0.13877 1.114081,-0.072 1.503295,0.0333 1.697474,0.45951 0.175055,0.3842 -0.634417,2.0085 -1.544086,3.09839 -0.136745,0.16383 -0.443457,0.57128 -0.681582,0.90544 -0.238125,0.33416 -0.750176,1.00107 -1.13789,1.48204 -0.387714,0.48096 -0.788658,1.02601 -0.890987,1.21122 -0.102329,0.18521 -0.350163,0.59753 -0.550744,0.91627 -0.656593,1.04337 -1.619215,2.97694 -2.0391,4.09584 -0.226492,0.60355 -0.518189,1.31384 -0.648215,1.57842 -0.26089,0.53087 -1.035024,1.71878 -1.211393,1.85888 -0.06171,0.049 -0.480213,0.1417 -0.930005,0.20595 -0.449792,0.0643 -1.207462,0.23988 -1.683712,0.39027 -0.47625,0.1504 -1.255568,0.32091 -1.731818,0.37892 -2.659024,0.3239 -4.278939,0.60397 -4.933628,0.853 -0.279328,0.10625 -1.058646,0.51575 -1.731818,0.91 -0.673172,0.39425 -1.31488,0.74516 -1.426019,0.7798 -0.111139,0.0347 -0.511845,0.38246 -0.890458,0.77293 -0.9466,0.97623 -1.213287,1.5732 -1.400395,3.13472 -0.269755,2.25126 -0.468194,5.84233 -0.414693,7.50455 l 0.0511,1.5875 0.418033,0.36615 c 0.229918,0.20139 0.598098,0.47379 0.818178,0.60534 0.629464,0.37625 2.454189,0.87134 3.496446,0.94866 0.502708,0.0373 1.358153,0.17276 1.900988,0.30104 1.01183,0.23912 2.601778,0.40982 4.304694,0.46216 0.529167,0.0163 1.243542,0.0773 1.5875,0.1357 0.621201,0.10543 0.897252,0.12732 3.944697,0.31282 0.873125,0.0532 1.825625,0.13512 2.116667,0.18214 0.291042,0.047 0.853883,0.0603 1.250758,0.0294 0.396875,-0.0309 1.998806,-0.0648 3.559848,-0.0755 z" /></g></svg>
